{"title":"Fuck_school_girls","uid":7033700,"size":203747417,"categoryP":"porn","categoryS":"other","magnet":"?xt=urn:btih:ba9afbc8067163b4becbc8d0eb3eaa099180c193&amp;dn=Fuck_school_girls&amp;tr=udp%3A%2F%2Ftracker.openbittorrent.com%3A80&amp;tr=udp%3A%2F%2Fopen.demonii.com%3A1337&amp;tr=udp%3A%2F%2Ftracker.coppersurfer.tk%3A6969&amp;tr=udp%3A%2F%2Fexodus.desync.com%3A6969","seeders":0,"leechers":0,"uploader":"zomanic","files":-1,"time":1329301606,"description":"Download, Enjoy And Seed !!\n\n----------------------------\n\nScreenshots : \n &lt;a href=&quot;\nhttp://image.bayimg.com/famgjaadk.jpg&quot; rel=&quot;nofollow&quot; target=&quot;_NEW&quot;&gt;\nhttp://image.bayimg.com/famgjaadk.jpg&lt;/a&gt;\n &lt;a href=&quot;\nhttp://image.bayimg.com/famgkaadk.jpg&quot; rel=&quot;nofollow&quot; target=&quot;_NEW&quot;&gt;\nhttp://image.bayimg.com/famgkaadk.jpg&lt;/a&gt;\n\n-----------------------------------------------------------------\n\nFormat                                   : Windows Media\nFile size                                : 195 MiB\nDuration                                 : 16mn 0s\nOverall bit rate mode                    : Constant\nOverall bit rate                         : 1 702 Kbps\nMaximum Overall bit rate                 : 867 Mbps\nEncoded date                             : UTC 2011-05-05 20:33:25.906\n\n--------------------------------------------------------------------------\n\nVideo\nID                                       : 1\nFormat                                   : VC-1\nFormat profile                           : MP\nCodec ID                                 : WMV3\nCodec ID/Info                            : Windows Media Video 9\nCodec ID/Hint                            : WMV3\nDuration                                 : 16mn 0s\nBit rate mode                            : Variable\nBit rate                                 : 1 496 Kbps\nWidth                                    : 720 pixels\nHeight                                   : 406 pixels\nDisplay aspect ratio                     : 16:9\nFrame rate                               : 25.000 fps\nBit depth                                : 8 bits\nScan type                                : Progressive\nCompression mode                         : Lossy\nBits/(Pixel*Frame)                       : 0.205\nStream size                              : 171 MiB (88%)\nLanguage                                 : Russian\n\n-----------------------------------------------------------------\n\nAudio\nID                                       : 2\nFormat                                   : WMA\nFormat version                           : Version 2\nCodec ID                                 : 161\nCodec ID/Info                            : Windows Media Audio\nDuration                                 : 16mn 0s\nBit rate mode                            : Constant\nBit rate                                 : 858 Mbps\nChannel(s)                               : 2 channels\nSampling rate                            : 48.0 KHz\nBit depth                                : 16 bits\nStream size                              : 95.9 GiB\nLanguage                                 : Russian\n\n--------------------------------------------------------------------------\n\nDo Not Forget To Seed As well !!\n","torrent":{"xt":"urn:btih:ba9afbc8067163b4becbc8d0eb3eaa099180c193","amp;dn":"Fuck_school_girls","amp;tr":["udp%3A%2F%2Ftracker.openbittorrent.com%3A80","udp%3A%2F%2Fopen.demonii.com%3A1337","udp%3A%2F%2Ftracker.coppersurfer.tk%3A6969","udp%3A%2F%2Fexodus.desync.com%3A6969"],"infoHash":"ba9afbc8067163b4becbc8d0eb3eaa099180c193","infoHashBuffer":{"type":"Buffer","data":[186,154,251,200,6,113,99,180,190,203,200,208,235,62,170,9,145,128,193,147]},"announce":[],"urlList":[]}}